# xmcd
# Copyright (C) 1995-1998 Ti Kan
#
# Track frame offsets:
#       150
#       10467
#       26704
#       39250
#       53080
#       69189
#       82043
#       100041
#       113480
#       134093
#       150190
#       166067
#       179952
#       191418
#
# Disc length: 2761 seconds
#
# Revision: 0
# Processed by: cddbd v1.5.2PL0 Copyright (c) Steve Scherf et al.
# Submitted via: CD-Import v1.0
#
DISCID=ac0ac70e
DTITLE=Garth Brooks - Sevens
DYEAR=1997
DGENRE=
TTITLE0=Longneck Bottle
TTITLE1=How You Ever Gonna Know
TTITLE2=She's Gonna Make It
TTITLE3=I Don't Have To Wonder
TTITLE4=Two Piña Coladas
TTITLE5=Cowboy Cadillac
TTITLE6=Fit For A King
TTITLE7=Do What You Gonna Do
TTITLE8=You Move Me
TTITLE9=In Another's Eyes
TTITLE10=When There's No One Around
TTITLE11=A Friend To Me
TTITLE12=Take The Keys To My Heart
TTITLE13=Belleau Wood
EXTD=
EXTT0=
EXTT1=
EXTT2=
EXTT3=
EXTT4=
EXTT5=
EXTT6=
EXTT7=
EXTT8=
EXTT9=
EXTT10=
EXTT11=
EXTT12=
EXTT13=
PLAYORDER=
